<svg width="164" height="46" viewBox="0 0 164 46" fill="none" xmlns="http://www.w3.org/2000/svg">
    <path d="M91.8277 14.2258L96.9958 22.4889L102.14 14.2258H105.894V31.7942H102.383V19.6848L97.727 27.2532H96.1425L91.4861 19.6848V31.7942H88V14.2258H91.8275H91.8277ZM118.225 14.0025C119.541 14.0025 120.728 14.2175 121.784 14.6476C122.84 15.0778 123.734 15.6857 124.466 16.4715C125.197 17.2573 125.758 18.196 126.148 19.2879C126.538 20.3797 126.733 21.5873 126.733 22.9107C126.733 24.2011 126.538 25.4005 126.148 26.5088C125.758 27.6171 125.197 28.5766 124.466 29.3871C123.734 30.1978 122.836 30.8306 121.772 31.2855C120.707 31.7403 119.501 31.9596 118.152 31.943C116.803 31.943 115.604 31.7155 114.556 31.2606C113.508 30.8057 112.622 30.1811 111.899 29.3871C111.175 28.5932 110.623 27.6502 110.241 26.5583C109.859 25.4665 109.668 24.2753 109.668 22.985C109.668 21.6616 109.867 20.4498 110.265 19.3497C110.663 18.2496 111.232 17.3025 111.972 16.5086C112.711 15.7145 113.609 15.0982 114.666 14.6598C115.722 14.2215 116.908 14.0024 118.225 14.0024L118.225 14.0025ZM113.3 22.9356C113.3 23.6966 113.402 24.4202 113.605 25.1067C113.808 25.7933 114.109 26.4012 114.507 26.9306C114.905 27.4598 115.413 27.8859 116.031 28.2084C116.648 28.531 117.372 28.7006 118.2 28.7173C118.997 28.7338 119.704 28.5889 120.321 28.283C120.939 27.977 121.451 27.5551 121.857 27.0175C122.264 26.4799 122.572 25.8596 122.784 25.1565C122.995 24.4534 123.1 23.7214 123.1 22.9605C123.1 22.216 122.999 21.4964 122.796 20.8015C122.593 20.1067 122.292 19.4905 121.894 18.9529C121.496 18.4153 120.988 17.9893 120.37 17.675C119.753 17.3607 119.029 17.2035 118.201 17.2035C117.388 17.2035 116.673 17.3607 116.055 17.675C115.438 17.9893 114.926 18.4112 114.519 18.9405C114.113 19.4698 113.808 20.0778 113.605 20.7643C113.402 21.4508 113.301 22.1746 113.301 22.9355L113.3 22.9356ZM139.771 19.2879C139.673 18.5434 139.348 18.01 138.796 17.6874C138.243 17.3648 137.552 17.187 136.723 17.1539C136.431 17.1539 136.126 17.1788 135.809 17.2284C135.492 17.278 135.196 17.3773 134.919 17.5261C134.643 17.675 134.416 17.8735 134.237 18.1216C134.058 18.3698 133.969 18.6757 133.969 19.0397C133.952 19.4202 134.046 19.7428 134.249 20.0075C134.452 20.2723 134.724 20.4873 135.066 20.6526C135.31 20.7684 135.574 20.8718 135.858 20.9628C136.142 21.0537 136.423 21.1365 136.699 21.211C136.975 21.2853 137.243 21.3474 137.503 21.397C137.764 21.4466 137.991 21.4962 138.186 21.5459C138.885 21.6948 139.559 21.8684 140.209 22.067C140.86 22.2655 141.436 22.5385 141.94 22.8859C142.444 23.2333 142.85 23.6965 143.159 24.2755C143.468 24.8544 143.63 25.6073 143.647 26.5335C143.647 27.5426 143.46 28.4029 143.086 29.1143C142.712 29.8256 142.208 30.3964 141.575 30.8264C140.973 31.2565 140.274 31.5667 139.478 31.7569C138.682 31.9471 137.804 32.0257 136.845 31.9927C135.919 31.9761 135.049 31.8479 134.237 31.608C133.424 31.3682 132.705 31.0166 132.079 30.5534C131.454 30.0902 130.954 29.5112 130.58 28.8165C130.206 28.1216 129.995 27.3028 129.946 26.3598H133.554C133.652 26.79 133.814 27.1456 134.042 27.4269C134.269 27.7082 134.538 27.9397 134.846 28.1216C135.155 28.3036 135.5 28.436 135.882 28.5187C136.264 28.6014 136.65 28.6511 137.04 28.6676C137.447 28.6842 137.837 28.6676 138.211 28.6179C138.584 28.5683 138.914 28.4732 139.198 28.3325C139.482 28.1919 139.706 27.9975 139.868 27.7494C140.031 27.5012 140.112 27.187 140.112 26.8065C140.112 26.2771 139.954 25.8884 139.637 25.6402C139.32 25.392 138.974 25.2184 138.601 25.1191C138.341 25.0529 138.109 24.9909 137.906 24.933C137.703 24.8751 137.503 24.8255 137.309 24.7841C137.114 24.7427 136.91 24.6973 136.699 24.6477C136.488 24.5979 136.244 24.5401 135.968 24.4738C135.35 24.3083 134.712 24.1223 134.054 23.9156C133.396 23.7088 132.807 23.4151 132.287 23.0347C131.653 22.588 131.177 22.0174 130.86 21.3225C130.543 20.6278 130.401 19.8584 130.434 19.015C130.483 18.0223 130.71 17.1993 131.116 16.5459C131.523 15.8925 132.043 15.3755 132.676 14.995C133.31 14.6144 134.009 14.3498 134.773 14.201C135.537 14.052 136.301 13.9859 137.065 14.0025C137.91 14.0191 138.694 14.1389 139.417 14.3623C140.14 14.5856 140.774 14.9123 141.319 15.3425C141.863 15.7725 142.306 16.3185 142.647 16.9802C142.989 17.6419 143.2 18.4112 143.281 19.2879H139.77H139.771ZM145.641 17.4269V14.2258H160V17.4269H154.588V31.7943H151.053V17.4269H145.641Z" fill="#212121"></path>
    <path fill-rule="evenodd" clip-rule="evenodd" d="M73.1884 37.1567C71.9783 38.874 70.0192 39.99 67.8079 39.99C62.7899 39.99 59.6431 34.4778 61.884 29.9614C62.9345 26.8434 63.5136 23.705 63.5136 21.2076C63.5136 18.1162 63.3088 16.298 62.9218 14.7519C58.5918 19.2249 56.4127 27.9351 55.2629 31.8114L55.2671 31.8039C54.4227 34.6157 51.6354 36.676 48.791 36.676C45.1674 36.676 42.216 33.699 42.0955 29.9795C41.9957 29.1095 41.9288 28.2426 41.7839 27.3791C40.702 20.9549 35.2865 16.0711 28.7689 16.0711C21.4725 16.0711 15.5573 22.1922 15.5573 29.7427C15.5573 30.7134 15.7392 31.6216 15.7392 32.5585C15.7392 36.6683 12.5196 40.0001 8.54802 40.0001C4.57649 40.0001 1.35686 36.6683 1.35686 32.5585C1.35686 30.4726 2.35598 27.3961 3.11311 25.4685C5.88645 18.4076 11.1188 12.4365 17.8225 9.51337C17.9066 9.47981 17.9906 9.44677 18.0752 9.4145C20.9134 8.21588 23.9634 7.58546 27.0254 7.58546C36.2717 7.58546 43.9892 14.0249 46.3676 22.708C46.4185 22.8933 46.4632 23.0828 46.5031 23.2749C49.5977 15.4874 55.6032 7.59502 64.483 7.59502C69.9591 7.59502 74.5136 12.0784 75.4658 17.9941L75.4641 17.9912C75.8146 19.9573 75.9999 21.9919 75.9999 24.0754C75.9999 27.4119 75.1702 34.3444 73.1884 37.1567ZM28.7689 22.81C32.469 22.81 35.4686 25.914 35.4686 29.7433V29.7528C35.4686 33.582 32.469 36.6859 28.7689 36.6859C25.0685 36.6859 22.0692 33.5818 22.0692 29.7528V29.7433C22.0692 25.914 25.0688 22.81 28.7689 22.81ZM4.46648 6.10352e-05C6.89779 6.10352e-05 8.87533 2.01032 8.93146 4.51237C8.9332 4.58904 8.9332 4.66468 8.93146 4.74136C8.87533 7.24341 6.89779 9.25367 4.46648 9.25367C2.03491 9.25367 0.0576284 7.24341 0.00124867 4.74136C-0.000497604 4.66468 -0.000497604 4.58904 0.00124867 4.51237C0.057379 2.01032 2.03491 6.10352e-05 4.46648 6.10352e-05Z" fill="#FF6900"></path>
    </svg>