<svg xmlns="http://www.w3.org/2000/svg" id="Layer_1" data-name="Layer 1" viewBox="0 0 556.43 164.97"><script xmlns=""/> <title>1-лого</title> <path d="M505.64,80.45a31.85,31.85,0,1,0,31.85,31.83,31.83,31.83,0,0,0-31.85-31.83m0,40.38a8.57,8.57,0,0,1,0-17.14,8.57,8.57,0,1,1,0,17.14"/> <path d="M119,112.38v30.11H20.5V24.06h96.27V54.17h-57V68.05h50.08V96.81H59.75v15.57Z"/> <path d="M246.37,24.06V142.49H213.55l-45-53.8v53.8H129.63V24.06h32.83l45,53.8V24.06Z"/> <path d="M260.94,24.06H312.5q19.78,0,34.94,7.19A54.73,54.73,0,0,1,371,51.8q8.39,13.38,8.38,31.47T371,114.74a54.62,54.62,0,0,1-23.51,20.56q-15.15,7.19-34.94,7.19H260.94Zm49.86,87.3q12.87,0,20.56-7.36t7.7-20.73q0-13.36-7.7-20.72T310.8,55.19h-9.94v56.17Z"/> <path d="M450.74,99.51v43H410.81V99L366.14,24.06h42.13L432.47,65l24.36-40.94h38.58Z"/> <script xmlns=""/></svg>