<svg xmlns="http://www.w3.org/2000/svg" width="174" height="14" viewBox="0 0 174 14" fill="#041c4d"><script xmlns=""/>
    <path d="M10.6107 8.19309C10.6107 8.82713 10.6107 9.39299 10.6107 9.96397C8.39834 9.96397 7.27179 9.95374 4.06861 9.96397C1.5814 9.72024 -0.106721 7.31191 0.00525464 4.66326C0.11723 2.02143 2.01233 0.0681835 5.03568 0.00512045C5.10524 0.00341604 14.8081 0.00512045 20.0065 0.00512045C19.7316 0.640864 19.4924 1.19309 19.2243 1.8152C18.2064 1.8152 17.202 1.8152 16.1331 1.8152C16.1331 4.55759 16.1331 7.24032 16.1331 9.96397C15.5207 9.96397 14.9761 9.96397 14.3517 9.96397C14.3517 7.3068 14.3517 4.5627 14.3517 1.8152C14.0107 1.79645 13.7409 1.8152 13.4712 1.8152C10.7023 1.81179 7.93347 1.81009 5.16462 1.8152C3.23558 1.81861 1.90375 3.03555 1.83758 4.82348C1.76293 6.82786 2.85724 8.07719 4.9237 8.19138C6.471 8.27831 10.665 8.24933 10.6107 8.19309Z"/>
    <path d="M99.577 9.65206C98.9018 9.65206 98.3182 9.65206 97.6582 9.65206C97.2239 7.5778 96.7895 5.50694 96.3077 3.20429C95.9837 3.80254 95.7478 4.22182 95.5256 4.64963C94.7706 6.10689 94.0495 7.58462 93.2487 9.01632C92.9128 9.62138 92.6413 9.77478 92.2002 9.77819C91.8253 9.77989 91.5403 9.62138 91.2009 9.02654C90.2339 7.29828 89.3499 5.52058 88.4355 3.76334C88.3744 3.64573 88.2946 3.53665 88.1233 3.26054C87.6635 5.47967 87.2377 7.53519 86.8016 9.63842C86.1722 9.63842 85.5665 9.63842 84.8709 9.63842C85.385 7.50792 85.8889 5.42684 86.3911 3.34405C86.5709 2.60093 86.7219 1.9703 86.9526 1.12492C87.0731 0.685179 87.3547 0.0988628 87.8807 0.0903408C88.561 0.0801143 88.8053 0.478945 89.0123 0.85221C89.9302 2.5106 90.7496 4.22353 91.6098 5.9143C91.7863 6.26029 91.9814 6.59606 92.2325 7.05455C93.1927 5.18652 94.0953 3.43098 94.9979 1.67373C95.154 1.37205 95.3254 1.09083 95.4781 0.78233C95.6749 0.386907 95.9565 0.086932 96.5741 0.0886364C97.022 0.0903408 97.3579 0.647682 97.4784 1.0414C97.8737 2.33845 98.1434 3.67471 98.4607 4.99562C98.8238 6.50913 99.1868 8.02094 99.577 9.65206Z"/>
    <path d="M151.943 9.56343C151.267 9.56343 150.684 9.56343 150.024 9.56343C149.589 7.48917 149.155 5.41831 148.673 3.11566C148.349 3.71391 148.113 4.13319 147.891 4.561C147.136 6.01827 146.415 7.49599 145.614 8.92769C145.278 9.53275 145.007 9.68615 144.566 9.68956C144.191 9.69126 143.906 9.53275 143.567 8.93791C142.599 7.20965 141.716 5.43195 140.801 3.67471C140.74 3.5571 140.66 3.44802 140.489 3.17191C140.029 5.39104 139.603 7.44656 139.167 9.5498C138.538 9.5498 137.932 9.5498 137.236 9.5498C137.751 7.41929 138.254 5.33821 138.757 3.25542C138.936 2.5123 139.087 1.88167 139.318 1.03629C139.439 0.596549 139.72 0.0102337 140.246 0.00171163C140.927 -0.0085148 141.171 0.390316 141.378 0.763581C142.296 2.42197 143.115 4.1349 143.975 5.82567C144.152 6.17166 144.347 6.50743 144.598 6.96592C145.558 5.09789 146.461 3.34235 147.364 1.58511C147.52 1.28343 147.691 1.0022 147.844 0.693701C148.04 0.298278 148.322 -0.00169718 148.94 7.22672e-06C149.388 0.00171163 149.723 0.559052 149.844 0.95277C150.239 2.24982 150.509 3.58608 150.826 4.90699C151.188 6.42221 151.551 7.93402 151.943 9.56343Z"/>
    <path d="M119.612 6.93694C120.598 7.85902 121.484 8.68737 122.513 9.65036C121.54 9.65036 120.769 9.65036 119.989 9.65036C119.12 8.79304 118.236 7.92209 117.413 7.11079C115.847 7.11079 114.388 7.11079 112.839 7.11079C112.839 7.97322 112.839 8.78452 112.839 9.64013C112.252 9.64013 111.755 9.64013 111.194 9.64013C111.194 6.49891 111.194 3.36791 111.194 0.13636C112.799 0.13636 114.373 0.122724 115.948 0.141473C117.018 0.153404 118.106 0.109089 119.158 0.269303C121.075 0.562461 121.976 1.51693 122.215 3.26224C122.417 4.73826 121.67 5.9143 120.024 6.71537C119.948 6.75287 119.875 6.79548 119.612 6.93694ZM112.882 5.26662C114.901 5.26662 116.865 5.34332 118.82 5.23594C119.931 5.17458 120.472 4.45192 120.442 3.53324C120.411 2.64184 119.86 1.96007 118.813 1.91406C116.855 1.82543 114.891 1.88849 112.882 1.88849C112.882 3.04067 112.882 4.1349 112.882 5.26662Z"/>
    <path d="M50.5792 9.6657C50.5792 9.08449 50.5792 8.5851 50.5792 7.97833C51.8754 7.97833 53.136 7.97833 54.3983 7.97833C55.4994 7.97833 56.6022 7.99879 57.7032 7.9664C58.0867 7.95447 58.5397 7.91357 58.8298 7.70222C59.1335 7.47894 59.4524 7.03239 59.4457 6.69151C59.4372 6.35403 59.0979 5.90066 58.7789 5.72511C58.3836 5.50694 57.8627 5.45581 57.3945 5.44388C56.0117 5.40979 54.6256 5.44559 53.2412 5.42854C51.4564 5.40638 50.3536 4.38885 50.3485 2.79694C50.3434 1.23741 51.5005 0.155108 53.2378 0.143177C55.6096 0.126133 57.9798 0.138064 60.428 0.138064C60.428 0.698814 60.428 1.21525 60.428 1.8527C60.1209 1.8527 59.8223 1.8527 59.5237 1.8527C57.5455 1.8527 55.5689 1.84588 53.5907 1.85611C52.9443 1.85951 52.2538 1.93451 52.2453 2.78671C52.2385 3.64062 52.8985 3.72073 53.5669 3.71902C54.9802 3.71391 56.3918 3.69686 57.805 3.72243C59.7341 3.75652 61.0269 4.95983 61.0456 6.69662C61.0625 8.29876 59.9801 9.59581 58.3768 9.64354C55.8115 9.72194 53.2412 9.6657 50.5792 9.6657Z"/>
    <path d="M173.364 0.161926C173.364 0.763581 173.364 1.26297 173.364 1.86804C171.779 1.86804 170.234 1.86804 168.69 1.86804C167.899 1.86804 167.107 1.84588 166.316 1.87997C165.705 1.90553 165.171 2.11688 165.196 2.86852C165.22 3.58437 165.741 3.72584 166.323 3.72925C167.821 3.73607 169.319 3.70198 170.816 3.73947C173.06 3.79572 174.429 5.55296 173.878 7.62041C173.596 8.67714 172.59 9.62309 171.416 9.65376C168.824 9.72194 166.228 9.67422 163.569 9.67422C163.569 9.12199 163.569 8.60555 163.569 7.99197C164.329 7.99197 165.057 7.99197 165.785 7.99197C167.509 7.99026 169.233 8.01072 170.956 7.97322C171.805 7.95618 172.356 7.46019 172.397 6.81422C172.441 6.11712 172.037 5.60239 171.111 5.53592C169.621 5.43025 168.121 5.47286 166.627 5.44218C166.175 5.43365 165.712 5.4507 165.278 5.35014C164.021 5.05698 163.174 3.90139 163.25 2.66399C163.335 1.31922 164.357 0.226693 165.812 0.182379C168.298 0.107385 170.782 0.161926 173.364 0.161926Z"/>
    <path d="M161.968 7.98345C161.968 8.60556 161.968 9.13051 161.968 9.68956C159.241 9.68956 156.542 9.68956 153.802 9.68956C153.802 6.49891 153.802 3.36451 153.802 0.187492C156.532 0.187492 159.207 0.187492 161.947 0.187492C161.947 0.720971 161.947 1.24422 161.947 1.87145C159.866 1.87145 157.764 1.87145 155.589 1.87145C155.589 2.60434 155.589 3.23497 155.589 3.97298C157.589 3.97298 159.552 3.97298 161.567 3.97298C161.567 4.6002 161.567 5.12004 161.567 5.73193C159.559 5.73193 157.594 5.73193 155.573 5.73193C155.573 6.50913 155.573 7.19942 155.573 7.98345C157.716 7.98345 159.82 7.98345 161.968 7.98345Z"/>
    <path d="M77.9573 9.69126C77.4211 9.69126 76.885 9.7066 76.3489 9.68785C73.7327 9.59922 71.8173 7.53519 71.8376 4.8337C71.858 2.13052 73.7124 0.184083 76.3743 0.148291C77.752 0.129542 79.1551 0.0767055 80.5056 0.296574C82.8638 0.680065 84.3059 2.76455 84.099 5.19845C83.8818 7.75165 82.1207 9.56514 79.7353 9.67422C79.1432 9.70149 78.5511 9.67763 77.9573 9.67763C77.9573 9.68274 77.9573 9.68615 77.9573 9.69126ZM77.9183 7.97833C78.3984 7.97833 78.8785 7.98515 79.357 7.97663C81.118 7.94765 82.3752 6.72389 82.4108 5.01437C82.4465 3.31167 81.2232 1.94814 79.5198 1.86292C78.507 1.81179 77.4856 1.81009 76.4727 1.86292C74.6964 1.95496 73.5325 3.27247 73.5732 5.06891C73.6123 6.80229 74.827 7.95277 76.6475 7.97663C77.0716 7.98345 77.4958 7.97833 77.9183 7.97833Z"/>
    <path d="M103.042 5.71147C103.042 6.49891 103.042 7.16874 103.042 7.94254C105.183 7.94254 107.314 7.94254 109.504 7.94254C109.504 8.53908 109.504 9.03506 109.504 9.61286C106.813 9.61286 104.098 9.61286 101.336 9.61286C101.336 6.48186 101.336 3.37303 101.336 0.199423C104.053 0.199423 106.747 0.199423 109.506 0.199423C109.506 0.702223 109.506 1.1982 109.506 1.80838C107.398 1.80838 105.271 1.80838 103.07 1.80838C103.07 2.57707 103.07 3.23497 103.07 3.99343C105.057 3.99343 107.018 3.99343 109.029 3.99343C109.029 4.58997 109.029 5.09107 109.029 5.71147C107.054 5.71147 105.067 5.71147 103.042 5.71147Z"/>
    <path d="M37.4967 0.138064C37.1913 0.794261 36.9453 1.32263 36.679 1.8936C34.9281 1.8936 33.2077 1.88849 31.4874 1.89531C29.521 1.90212 28.2791 3.08498 28.2706 4.94279C28.2621 6.79718 29.5007 7.9664 31.4891 7.97663C33.1568 7.98515 34.8246 7.98686 36.4907 7.99708C36.5399 7.99708 36.5908 8.03969 36.6942 8.08571C36.6942 8.5834 36.6942 9.10495 36.6942 9.60093C34.4853 9.60093 32.295 9.81057 30.1623 9.54468C27.8719 9.25834 26.3823 6.87047 26.5248 4.60702C26.7165 1.58681 28.9645 0.158517 31.1379 0.141473C33.2009 0.124429 35.264 0.138064 37.4967 0.138064Z"/>
    <path d="M39.0474 0.167039C39.4665 0.167039 39.743 0.167039 40.1468 0.167039C40.1468 0.722676 40.1468 1.24934 40.1468 1.7777C40.1468 3.05601 40.1316 4.33261 40.1519 5.61091C40.1723 6.94546 40.7169 7.67324 42.0182 7.8096C43.1549 7.92891 44.3289 7.93402 45.4606 7.78744C46.5888 7.64086 47.1131 6.94376 47.1555 5.78306C47.2115 4.2525 47.1894 2.71854 47.1996 1.18457C47.2013 0.877777 47.1996 0.569279 47.1996 0.199423C47.7646 0.199423 48.2566 0.199423 48.8402 0.199423C48.8657 0.414178 48.9149 0.652795 48.9166 0.893116C48.9233 2.42538 48.9352 3.95934 48.9166 5.4916C48.8877 8.03799 47.583 9.48332 45.0653 9.64354C43.9201 9.71683 42.7392 9.72365 41.6127 9.53446C39.4885 9.17653 38.4367 7.85221 38.3824 5.69784C38.3518 4.53543 38.3009 3.3628 38.4061 2.20892C38.4672 1.53056 38.8133 0.877777 39.0474 0.167039Z"/>
    <path d="M65.5907 1.8919C64.2504 1.8919 63.1018 1.8919 61.8989 1.8919C61.8989 1.29365 61.8989 0.772103 61.8989 0.192605C64.9308 0.192605 67.927 0.192605 70.9741 0.192605C70.9741 0.732902 70.9741 1.23229 70.9741 1.86804C69.783 1.86804 68.5937 1.86804 67.3094 1.86804C67.3094 4.53714 67.3094 7.075 67.3094 9.67251C66.7173 9.67251 66.2202 9.67251 65.5907 9.67251C65.5907 7.13636 65.5907 4.58145 65.5907 1.8919Z"/>
    <path d="M132.595 1.85099C131.378 1.85099 130.226 1.85099 128.969 1.85099C128.969 4.45362 128.969 7.01194 128.969 9.63161C128.375 9.63161 127.883 9.63161 127.279 9.63161C127.279 7.08182 127.279 4.5218 127.279 1.88167C126 1.88167 124.826 1.88167 123.584 1.88167C123.584 1.28343 123.584 0.76699 123.584 0.192605C126.573 0.192605 129.551 0.192605 132.595 0.192605C132.595 0.707336 132.595 1.22377 132.595 1.85099Z"/>
    <path d="M16.1789 11.9769C16.1789 12.6757 16.1789 13.3114 16.1789 14C12.0206 14 7.91141 14 3.72081 14C3.72081 13.3404 3.72081 12.6859 3.72081 11.9769C7.86052 11.9769 11.9697 11.9769 16.1789 11.9769Z"/>
    <path d="M135.647 9.65376C135.109 9.65376 134.614 9.65376 134.067 9.65376C134.067 6.49209 134.067 3.36621 134.067 0.190901C134.59 0.190901 135.084 0.190901 135.647 0.190901C135.647 3.31167 135.647 6.43414 135.647 9.65376Z"/>
    <script xmlns=""/></svg>