<svg xmlns="http://www.w3.org/2000/svg" width="150" height="30" viewBox="0 0 150 30" fill="none"><script xmlns=""/>
    <g clip-path="url(#clip0_302_16)">
    <path fill-rule="evenodd" clip-rule="evenodd" d="M11.6928 2.52923C11.847 0.906548 11.0561 0.201469 9.51592 0.560825C4.86106 1.64571 0.792735 6.2944 0.515899 11.7244C0.508468 12.2138 0.490507 13.3186 0.647815 13.7256C2.28159 17.9567 11.3057 6.59243 11.6928 2.52923Z" fill="#00B5E7"/>
    <path fill-rule="evenodd" clip-rule="evenodd" d="M3.02661 19.7863C3.92401 21.0323 5.22335 22.4307 6.26567 23.5546C8.81112 23.4418 13.3891 18.611 14.8445 16.7882C17.4258 13.5547 20.9931 7.31239 20.4804 2.63209C19.1779 1.69281 18.0105 1.09306 16.36 0.573853C17.071 6.9487 9.2558 17.8793 3.02661 19.7863Z" fill="#00B5E7"/>
    <path fill-rule="evenodd" clip-rule="evenodd" d="M22.4126 12.6802C21.0526 15.9306 18.7022 18.635 16.5062 21.1828C15.2978 22.5849 14.0976 23.7757 13.1705 24.6859C12.2031 25.6351 10.8845 26.8643 9.52637 27.1722C10.0007 27.6772 10.5872 28.2751 11.0456 28.7769C12.0303 29.8543 14.2679 29.8327 15.3821 28.7751C18.722 25.2118 22.5891 21.4064 24.6533 16.9585C25.1996 15.7813 25.7099 14.0235 25.7099 12.4108C25.7099 9.12262 23.9919 6.54645 23.9882 6.60903C23.8742 8.62702 23.7726 9.42997 22.4126 12.6802Z" fill="#00B5E7"/>
    <path d="M39.0397 7.75418C37.7676 7.75418 36.5376 7.75418 35.2866 7.75418V22.3552C38.2476 22.3552 41.333 22.3552 44.3355 22.3552C44.3355 21.1043 44.3355 20.2486 44.3355 18.9971H39.0397C39.0397 12.7814 39.0397 15.305 39.0397 7.75418ZM59.2055 7.75418C55.7856 7.75418 53.4712 7.75418 50.0934 7.75418C50.0934 12.5937 50.0934 17.4747 50.0934 22.3552C53.4712 22.3552 55.9739 22.3552 59.3931 22.3552C59.3931 21.2498 59.3931 20.1234 59.3931 19.0391C57.2039 19.0391 55.9528 19.0391 53.805 19.0391C53.805 18.1631 53.805 17.3285 53.805 16.4735H58.7676C58.7676 15.3675 58.7676 14.2622 58.7676 13.1569H53.805V11.0918C55.9528 11.0918 57.0366 11.0918 59.2055 11.0918C59.2055 9.96541 59.2055 8.83906 59.2055 7.75418ZM76.4086 22.3552L80.2598 22.352L73.4685 7.77151H71.8632L65.0612 22.3552H68.9444L69.799 20.5199H75.5536L76.4086 22.3552ZM74.3442 17.3285H71.0085L72.656 13.388L74.3442 17.3285ZM91.4941 7.75418H85.9891V22.3552H91.4941C101.001 22.3136 101.001 7.79626 91.4941 7.75418ZM89.7211 11.1544H91.4941C96.1433 11.1544 96.1396 18.9555 91.4941 18.9555H89.7211V11.1544ZM104.475 15.0547C104.495 20.0398 108.248 22.5224 111.96 22.5224C117.056 22.5224 118.997 18.9165 118.78 14.6216H112.556V17.2659H115.088C114.42 18.6631 113.462 19.0596 111.96 19.0596C109.75 19.0596 108.332 17.4747 108.332 15.0547C108.332 12.8229 109.604 11.09 111.96 11.09C113.44 11.09 114.445 11.6123 115.004 12.7393H118.571C117.862 9.11041 114.9 7.79258 111.96 7.77151C108.248 7.77151 104.495 10.0695 104.475 15.0547ZM129.784 22.3552V7.75418H129.832H126.093V22.3552H129.784ZM142.367 7.75418H136.862V22.3552H142.367C151.874 22.3136 151.874 7.79626 142.367 7.75418ZM140.594 11.1544H142.367C147.016 11.1544 147.008 18.9555 142.367 18.9555H140.594V11.1544Z" fill="#434B4E"/>
    </g>
    <defs>
    <clipPath id="clip0_302_16">
    <rect width="150" height="30" fill="white"/>
    </clipPath>
    </defs>
    <script xmlns=""/></svg>