<svg xmlns="http://www.w3.org/2000/svg" width="270" height="20" fill="none"><script xmlns=""/><path fill-rule="evenodd" clip-rule="evenodd" d="M48.872 19.673h-4.936V4.219H37.37v15.454h-4.936V0h16.439v19.673zM0 .159h17.705L0 17.331V.16zm19.955 2.183v17.172H2.25L19.955 2.342zM147.643 0h4.936v1.413h1.314c4.179 0 7.599 3.316 7.599 7.37s-3.42 7.37-7.599 7.37h-1.314v3.532h-4.936v-3.532h-1.314c-4.179 0-7.598-3.316-7.598-7.37s3.419-7.37 7.598-7.37h1.314V0zm4.936 6.114v5.339h1.314c1.514 0 2.752-1.202 2.752-2.67s-1.238-2.67-2.752-2.67h-1.314zm-4.936 5.339v-5.34h-1.314c-1.513 0-2.752 1.202-2.752 2.67s1.239 2.67 2.752 2.67h1.314zm109.444-.05h4.224l-2.112-5.238-2.112 5.239zm-.356-11.36L256.714 0h4.97l-.017.042L270 19.67h-5.357l-1.705-4.229h-7.478l-1.705 4.23h-5.357L256.731.042zm-36.033.134h.117L220.698 0h4.911l5.26 7.958L236.116.02V0h4.936v19.845h-4.936V7.525l-3.714 5.543h-3.065l-3.703-5.602v12.379h-4.936V.177zM197.274 0h9.895c3.401 0 6.183 2.738 6.183 6.085s-2.782 6.086-6.183 6.086h-4.959v7.514h-4.936V0zm4.936 3.991v4.19c.842.013 1.587.003 1.823.003h2.253c1.172 0 2.132-.944 2.132-2.099 0-1.154-.96-2.098-2.132-2.098h-2.253c-.233 0-.981-.006-1.823.004zM179.383 0c5.824 0 10.546 4.477 10.546 10s-4.722 10-10.546 10c-5.824 0-10.545-4.477-10.545-10s4.721-10 10.545-10zm0 4.497c3.017 0 5.462 2.463 5.462 5.503s-2.445 5.503-5.462 5.503c-3.016 0-5.462-2.464-5.462-5.503 0-3.04 2.446-5.503 5.462-5.503zM120.26 0h11.125v4.22h-6.189v15.29h-4.936V4.22h-6.147V0h6.147zM93.855 11.404h4.222l-2.11-5.238-2.112 5.238zM93.498.042L93.481 0h4.971l-.017.042 8.332 19.63h-5.357l-1.706-4.232H92.23l-1.707 4.233h-5.357L93.498.043zM64.533 0h4.971l-.017.042 8.333 19.63h-5.357L67.019 6.167l-5.444 13.507h-5.357L64.55.043 64.533 0z" fill="#000"/><script xmlns=""/></svg>