<svg xmlns="http://www.w3.org/2000/svg" width="163" height="19" viewBox="0 0 163 19" fill="none">
<path d="M0 2.11244H2.14697V0H12.8212V2.11244H14.9682V4.22487H10.6742V2.11244H4.29394V16.8876H12.8333V19H2.14697V16.8876H0V2.11244ZM12.8212 16.8756V16.8518H10.6499V14.7632H14.956V16.8756H12.809H12.8212Z" fill="url(#logo-gradient_288_310)"/>
<path d="M17.1758 2.11244H19.347V0H30.0212V2.11244H32.1682V16.8876H30.0212V19H19.347V16.8876H17.1758V2.11244ZM27.8742 2.11244H21.4818V16.8876H27.8742V2.11244Z" fill="url(#logo-gradient_288_310)"/>
<path d="M47.197 14.7751V16.8876H45.05V19H34.3515V0H45.05V2.11244H47.197V4.22487H49.344V14.7751H47.197ZM38.6455 2.11244V16.8876H42.9152V14.7751H45.0621V4.22487H42.9152V2.11244H38.6455Z" fill="url(#logo-gradient_288_310)"/>
<path d="M53.6743 18.9881V0H57.944V18.9881H53.6743Z" fill="url(#logo-gradient_288_310)"/>
<path d="M64.397 18.9881H60.1031V0H64.397V18.9881ZM64.397 10.5503V6.32538H66.544V10.5503H64.397ZM66.544 12.6627V10.5503H68.691V12.6627H66.544ZM68.691 0H72.9849V18.9881H68.691V0Z" fill="url(#logo-gradient_288_310)"/>
<path d="M85.709 4.22487C85.7576 4.04585 85.7697 3.84296 85.7697 3.62814C85.7697 3.41332 85.7697 3.12688 85.7333 2.79271C85.709 2.45854 85.6969 2.23178 85.6969 2.11244H79.3894V16.8876H85.8061V10.5622H83.6591V8.44975H90.0879V19H77.2424V16.8876H75.0955V2.11244H77.2424V0H87.9409V2.11244H90.0879V4.22487H85.6969H85.709Z" fill="url(#logo-gradient_288_310)"/>
<path d="M113.692 0V2.11244H109.398V18.9881H105.105V2.11244H100.811V0H113.692Z" fill="url(#logo-gradient_288_310)"/>
<path d="M126.562 2.11244H120.145V8.43781H124.415V10.5503H120.109V16.8756H126.562V18.9881H115.839V0H126.562V2.11244Z" fill="url(#logo-gradient_288_310)"/>
<path d="M132.991 18.9881H128.697V14.7632H130.844V8.43781H132.991V4.21294H135.138V0H139.408V4.22487H141.555V8.44975H143.702V14.7751H145.848V19H141.555V16.8876H133.003V19L132.991 18.9881ZM139.408 8.43781H135.138V14.7632H139.408V8.43781Z" fill="url(#logo-gradient_288_310)"/>
<path d="M154.412 12.6627H152.265V18.9881H147.971V0H152.265C152.289 1.01445 152.289 2.42274 152.265 4.22487V8.44975H154.412V12.6746V12.6627ZM156.559 12.6627V16.8876H154.412V12.6627H156.559ZM156.559 12.6627V8.43781H158.706V12.6627H156.559ZM158.706 0H163V18.9881H158.706V0Z" fill="url(#logo-gradient_288_310)"/>
<defs>
<linearGradient id="logo-gradient_288_310" x1="0" y1="50" x2="75.001" y2="50" gradientUnits="userSpaceOnUse">
<stop stop-color="#FFC600"/>
<stop offset="1" stop-color="#000000"/>
</linearGradient>
</defs>
</svg>