<svg viewBox="0 0 119 31" fill="none" xmlns="http://www.w3.org/2000/svg">
<path d="M25.0681 8.34895H20.4683V23.0383H25.078V16.6867C25.078 13.8294 26.7257 12.1243 29.413 12.1243C29.9328 12.1243 31.7037 12.1243 31.908 12.1243V8.34898C31.5273 8.34895 29.9034 8.34895 29.5699 8.34895C27.8928 8.34895 26.4412 8.15592 25.0681 9.72978V8.34895Z" fill="#222222"/>
<path d="M50.8737 18.2176H45.7741C45.2228 19.5556 43.9036 20.3296 42.1315 20.3296C39.9263 20.3296 38.3511 18.963 38.3511 16.851H51.11V16.2394C51.11 10.9164 47.8809 7.94426 42.1217 7.94426C36.5298 7.94426 33.1333 10.945 33.1333 15.6756C33.1333 20.4348 36.579 23.4355 42.1217 23.4355C46.542 23.4355 49.6333 21.5147 50.8737 18.2176ZM38.4987 13.8598C38.6661 12.0632 40.0936 10.945 42.2496 10.945C44.3958 10.945 45.8332 12.0727 46.0005 13.8598H38.4987Z" fill="#222222"/>
<path d="M65.8174 3.57492V9.1359C64.3883 8.34147 63.3669 8.14286 61.5283 8.14286C56.217 8.14286 53.1528 11.4335 53.1528 15.8885C53.1528 20.8537 55.8763 23.4355 60.7443 23.4355C62.9631 23.4355 64.1583 23.4355 65.8174 23.4355H70.3124V3.57492H65.8174ZM65.8174 15.8885C65.8174 17.1554 65.8174 19.9671 65.8174 19.9671C65.8174 19.9671 62.8417 19.9671 61.5614 19.9671C58.9887 19.9671 57.2384 18.4206 57.2384 15.8885C57.2384 13.3564 58.9365 11.7178 61.5283 11.7178C64.1202 11.7178 65.8174 13.4135 65.8174 15.8885Z" fill="#222222"/>
<path d="M105.45 3.57492V9.1359C106.879 8.34147 107.9 8.14286 109.739 8.14286C115.05 8.14286 118.114 11.4335 118.114 15.8885C118.114 20.8537 115.391 23.4355 110.523 23.4355C108.304 23.4355 107.109 23.4355 105.45 23.4355H100.955V3.57492H105.45ZM105.45 15.8885C105.45 17.1554 105.45 19.9671 105.45 19.9671C105.45 19.9671 108.425 19.9671 109.706 19.9671C112.278 19.9671 114.029 18.4206 114.029 15.8885C114.029 13.3564 112.331 11.7178 109.739 11.7178C107.147 11.7178 105.45 13.4135 105.45 15.8885Z" fill="#222222"/>
<path d="M78.4839 3.57492H73.9897V23.4355H78.4839V3.57492Z" fill="#222222"/>
<path d="M86.4229 13.2386C86.4229 11.528 87.5453 10.8017 89.7804 10.8017C92.0448 10.8017 93.1965 11.3369 93.1965 12.4359C93.1965 14.0414 91.1468 13.9363 87.3501 14.2325C83.1823 14.5577 81.3438 15.7807 81.3438 18.6477C81.3438 21.5147 82.7237 23.4355 86.9109 23.4355C89.4486 23.4355 91.4201 22.8239 93.0891 21.3522V23.4355H97.6862V22.6957C97.6862 21.7662 97.6862 21.5911 97.6862 20.5972V13.4011C97.6862 8.82347 94.0554 7.94426 90.0634 7.94426C84.5391 7.94426 81.6696 9.81736 81.6696 13.2386H86.4229ZM93.1965 15.9432V16.4497C93.1965 18.7528 91.1176 20.387 87.9748 20.387C86.4424 20.387 85.4859 19.6416 85.4859 18.5426C85.4859 17.1473 86.8523 16.9657 89.4486 16.6981C90.9907 16.5357 92.24 16.4497 93.1965 15.9432Z" fill="#222222"/>
<path d="M7.82291 0H13.5223L6.55637 30.1882H0.856934L7.82291 0Z" fill="#E13737"/>
</svg>
