<svg xmlns="http://www.w3.org/2000/svg" xmlns:xlink="http://www.w3.org/1999/xlink" viewBox="0 0 461.39 155.86"><defs><style>.cls-1{fill:none;clip-rule:evenodd;}.cls-2{clip-path:url(#clip-path);}.cls-3{fill:url(#Безымянный_градиент_3);}.cls-4{clip-path:url(#clip-path-2);}.cls-5{fill:url(#Безымянный_градиент_3-2);}.cls-6,.cls-8{fill:#172d6a;}.cls-6{fill-rule:evenodd;}.cls-7{fill:#0076b5;}.cls-9{clip-path:url(#clip-path-3);}.cls-10{fill:url(#Безымянный_градиент_3-3);}</style><clipPath id="clip-path"><path class="cls-1" d="M89.11,20.39c.3,6.71-3.85,14.22-8.11,18.48l-15,15L52.43,67.44V50.82C51.12,18.26,75.74,19.36,89.11,0Z"/></clipPath><linearGradient id="Безымянный_градиент_3" x1="52.38" y1="33.72" x2="89.12" y2="33.72" gradientUnits="userSpaceOnUse"><stop offset="0" stop-color="#0076b5"/><stop offset="1" stop-color="#81c5c3"/></linearGradient><clipPath id="clip-path-2"><path class="cls-1" d="M56.39,103.55l3-3L105,54.91V71.48a10.37,10.37,0,0,1-3.36,8.85L68,114v22a35.77,35.77,0,0,1-15.59,3.47V110.7c0-2.37.5-3.68,4-7.15"/></clipPath><linearGradient id="Безымянный_градиент_3-2" x1="52.41" y1="97.21" x2="105.06" y2="97.21" xlink:href="#Безымянный_градиент_3"/><clipPath id="clip-path-3"><path class="cls-1" d="M105,23.8V40.41a10.4,10.4,0,0,1-3.37,8.87L90,60.94l0,0-65.33,65.4a36.2,36.2,0,0,1-7.33-14.78l41-41.07v0Z"/></clipPath><linearGradient id="Безымянный_градиент_3-3" x1="17.13" y1="75.08" x2="105.06" y2="75.08" xlink:href="#Безымянный_градиент_3"/></defs><g id="Слой_2" data-name="Слой 2"><g id="Слой_1-2" data-name="Слой 1"><g class="cls-2"><rect class="cls-3" x="51.12" width="38.29" height="67.44"/></g><g class="cls-4"><rect class="cls-5" x="52.41" y="54.91" width="52.83" height="84.61"/></g><path class="cls-6" d="M104.9,107.53A52.52,52.52,0,1,1,48,51V67.44a36.17,36.17,0,1,0,40.68,34.27l0,0v-2l16.37-16.36v18.88a52.21,52.21,0,0,1-.17,5.29"/><path class="cls-7" d="M229.13,90.91h6.67l-2.67-7.47c-.12-.32-.23-.67-.33-1s-.21-.9-.33-1.59c-.13.69-.24,1.22-.34,1.59s-.21.72-.33,1Zm-10.54,9.62,10.17-25.9h7.41l10.17,25.9h-7l-1.48-4.07H227.1l-1.48,4.07Zm-26.13,0,8.88-13.47L193,74.63h8l4.7,7.62,4.7-7.62h8l-8.32,12.43L219,100.53h-8l-5.25-8.69-5.26,8.69Zm-16.84-9.62h6.66l-2.66-7.47c-.12-.32-.23-.67-.33-1s-.21-.9-.34-1.59q-.18,1-.33,1.59c-.1.37-.21.72-.33,1Zm-10.54,9.62,10.17-25.9h7.4l10.18,25.9h-7l-1.48-4.07H173.59l-1.48,4.07ZM142,88a15,15,0,0,1,1.21-6.29,12.21,12.21,0,0,1,3.18-4.31,12.87,12.87,0,0,1,4.5-2.48,16.93,16.93,0,0,1,5.14-.8,18.7,18.7,0,0,1,3.9.41,16.16,16.16,0,0,1,3.61,1.22v6.48a8.42,8.42,0,0,0-2.87-1.56,10.94,10.94,0,0,0-3.46-.55,10.49,10.49,0,0,0-3,.44,7.46,7.46,0,0,0-2.61,1.39,6.84,6.84,0,0,0-1.85,2.44A8.45,8.45,0,0,0,149,88a6.92,6.92,0,0,0,.7,3.24,6.48,6.48,0,0,0,1.83,2.2,7.62,7.62,0,0,0,2.59,1.26,11.16,11.16,0,0,0,3,.41,11.41,11.41,0,0,0,3.74-.6,7.51,7.51,0,0,0,2.85-1.66v6.66a17.38,17.38,0,0,1-7.55,1.63,18.07,18.07,0,0,1-5.22-.76A13.21,13.21,0,0,1,146.41,98a11.81,11.81,0,0,1-3.2-4.07A13.28,13.28,0,0,1,142,88Z"/><path class="cls-8" d="M461.39,126.11a6.56,6.56,0,0,1-1,3.68,7.11,7.11,0,0,1-2.51,2.33,11.45,11.45,0,0,1-3.5,1.24,20.79,20.79,0,0,1-3.94.37,29.81,29.81,0,0,1-9.81-1.7v-6.47a18,18,0,0,0,5.09,1.73,23.78,23.78,0,0,0,4.16.34,12.23,12.23,0,0,0,1.76-.13,5.34,5.34,0,0,0,1.46-.43,2.48,2.48,0,0,0,1-.79,2,2,0,0,0,.37-1.24,1.72,1.72,0,0,0-.94-1.74,5.85,5.85,0,0,0-2.5-.45h-6.14l0-5.92,5.7,0a4,4,0,0,0,2.11-.46,1.56,1.56,0,0,0,.74-1.43,1.83,1.83,0,0,0-1-1.68,6.94,6.94,0,0,0-3.24-.57,15.31,15.31,0,0,0-3.59.4,20.5,20.5,0,0,0-4.55,1.67v-6.48a22.79,22.79,0,0,1,4.6-1.33,24.43,24.43,0,0,1,4.09-.37,19.88,19.88,0,0,1,4.35.44,10.28,10.28,0,0,1,3.33,1.34,6.05,6.05,0,0,1,2.13,2.23,6.57,6.57,0,0,1,.74,3.17,5.53,5.53,0,0,1-1.06,3.44,6,6,0,0,1-3,2.07,9.19,9.19,0,0,1,2,.91,6.38,6.38,0,0,1,1.62,1.39,6,6,0,0,1,1.08,1.92,7.46,7.46,0,0,1,.39,2.48m-39.34-2.55h6.66L426,116.08c-.12-.32-.23-.66-.33-1s-.21-.9-.33-1.6c-.12.7-.24,1.23-.33,1.6a8.88,8.88,0,0,1-.34,1Zm-10.55,9.62,10.18-25.91h7.4l10.18,25.91h-7l-1.48-4.07H420l-1.48,4.07Zm-15.28,0V107.27h18.69v6.11H403.06v19.8ZM392,107.27v5.93H380.23v4h10.7V123h-10.7v4.22h12v5.92H373.38V107.27Zm-21.58,0v6.11h-7.29v19.8h-6.84v-19.8H349v-6.11Zm-34.19,18.62a7.61,7.61,0,0,0,2.74-.76,5.36,5.36,0,0,0,1.7-1.37,4.59,4.59,0,0,0,.87-1.72,7,7,0,0,0,0-3.63,4.67,4.67,0,0,0-.87-1.72,5.5,5.5,0,0,0-1.7-1.37,7.62,7.62,0,0,0-2.74-.75Zm-12.21-5.66a7.4,7.4,0,0,0,.24,1.85,4.55,4.55,0,0,0,.88,1.72,5.67,5.67,0,0,0,1.76,1.37,7.71,7.71,0,0,0,2.85.72V114.57a8.33,8.33,0,0,0-2.85.73,5.24,5.24,0,0,0-1.76,1.36,4.47,4.47,0,0,0-.88,1.72A7.28,7.28,0,0,0,324.06,120.23Zm5.73,14.43v-3.18a18.27,18.27,0,0,1-5.2-1,12.54,12.54,0,0,1-4-2.26,9.59,9.59,0,0,1-2.53-3.44,12.18,12.18,0,0,1,0-9.14,9.54,9.54,0,0,1,2.53-3.45,12.33,12.33,0,0,1,4-2.25,17.93,17.93,0,0,1,5.2-1v-3.19h6.48V109a18.54,18.54,0,0,1,5.1,1,12.38,12.38,0,0,1,3.93,2.26,9.63,9.63,0,0,1,2.5,3.44,12.39,12.39,0,0,1,0,9.07,9.63,9.63,0,0,1-2.5,3.44,12.38,12.38,0,0,1-3.93,2.26,18.91,18.91,0,0,1-5.1,1v3.18ZM315.1,107.27v5.93H303.29v4H314V123h-10.7v4.22h12v5.92H296.45V107.27Zm-23.54,0v25.91h-6.84V123.3H275.1v9.88h-6.85V107.27h6.85v9.92h9.62v-9.92ZM242.75,120.6a14.86,14.86,0,0,1,1.21-6.29,12.25,12.25,0,0,1,3.18-4.32,13.08,13.08,0,0,1,4.49-2.48,17,17,0,0,1,5.15-.79,18.06,18.06,0,0,1,3.9.41,15.67,15.67,0,0,1,3.61,1.22v6.47a8.68,8.68,0,0,0-2.87-1.55,11,11,0,0,0-3.46-.56,10.16,10.16,0,0,0-3,.45,7.3,7.3,0,0,0-2.61,1.39,6.84,6.84,0,0,0-1.85,2.44,8.42,8.42,0,0,0-.71,3.61,6.88,6.88,0,0,0,.71,3.23,6.42,6.42,0,0,0,1.83,2.21,7.7,7.7,0,0,0,2.59,1.25,10.72,10.72,0,0,0,3,.41,11.68,11.68,0,0,0,3.74-.59,7.4,7.4,0,0,0,2.85-1.67v6.67a17.55,17.55,0,0,1-7.55,1.62,18.4,18.4,0,0,1-5.22-.75,13.12,13.12,0,0,1-4.53-2.35,12,12,0,0,1-3.21-4.08A13.38,13.38,0,0,1,242.75,120.6Zm-3.62-13.33v25.91h-6.85V123.3h-9.62v9.88h-6.85V107.27h6.85v9.92h9.62v-9.92Zm-43,16.29h6.66l-2.67-7.48c-.12-.32-.23-.66-.33-1s-.21-.9-.33-1.6c-.13.7-.24,1.23-.34,1.6s-.21.71-.33,1Zm-10.55,9.62,10.17-25.91h7.41l10.17,25.91h-7l-1.48-4.07H194.09l-1.48,4.07Zm-5.4-17a3,3,0,0,0-.32-1.47,2.35,2.35,0,0,0-.87-.9,3.65,3.65,0,0,0-1.26-.46,7.84,7.84,0,0,0-1.48-.13h-3.74v5.92h3.74a8.76,8.76,0,0,0,1.48-.13,3.66,3.66,0,0,0,1.26-.47,2.35,2.35,0,0,0,.87-.9A3,3,0,0,0,180.18,116.16Zm-4.26-8.89a22.28,22.28,0,0,1,4.46.43,9.7,9.7,0,0,1,3.57,1.46,7.3,7.3,0,0,1,2.39,2.74,10.84,10.84,0,0,1,0,8.51,7.09,7.09,0,0,1-2.39,2.72,10.05,10.05,0,0,1-3.57,1.46,20.87,20.87,0,0,1-4.46.45h-3.41v8.14h-6.84V107.27Zm-13.17,0v6.11h-7.29v19.8h-6.85v-19.8h-7.33v-6.11Z"/><g class="cls-9"><rect class="cls-10" x="17.32" y="23.8" width="87.92" height="102.56"/></g></g></g></svg>